<?xml version="1.0" encoding="utf-8"?>
<!-- Generator: Adobe Illustrator 25.1.0, SVG Export Plug-In . SVG Version: 6.00 Build 0)  -->
<svg version="1.1" xmlns="http://www.w3.org/2000/svg" xmlns:xlink="http://www.w3.org/1999/xlink" x="0px" y="0px"
	 viewBox="0 0 902.4 826.2" style="enable-background:new 0 0 902.4 826.2;" xml:space="preserve">
<style type="text/css">
	.st0{fill:#3F3D56;}
	.st1{fill:url(#SVGID_1_);}
	.st2{fill:#E6E6E6;}
	.st3{fill:url(#SVGID_2_);}
	.st4{opacity:0.3;fill:#F0F0F0;enable-background:new    ;}
	.st5{fill:url(#SVGID_3_);}
	.st6{fill:url(#SVGID_4_);}
	.st7{fill:url(#SVGID_5_);}
	.st8{fill:url(#SVGID_6_);}
	.st9{fill:#CCCCCC;}
	.st10{fill:url(#SVGID_7_);}
	.st11{fill:url(#SVGID_8_);}
	.st12{fill:url(#SVGID_9_);}
	.st13{fill:url(#SVGID_10_);}
	.st14{fill:url(#SVGID_11_);}
	.st15{fill:url(#SVGID_12_);}
	.st16{fill:url(#SVGID_13_);}
</style>
<g id="Capa_1">
	<path class="st0" d="M369.7,116.3"/>
	<path class="st0" d="M393.9,143.4"/>
	<linearGradient id="SVGID_1_" gradientUnits="userSpaceOnUse" x1="29.585" y1="388.7276" x2="717.5538" y2="388.7276">
		<stop  offset="0" style="stop-color:#10B5C3"/>
		<stop  offset="0.4888" style="stop-color:#ADDADA"/>
		<stop  offset="1" style="stop-color:#005B78"/>
	</linearGradient>
	<path class="st1" d="M405.9,295.5c9.4,2.5,18.9,4.3,28.5,5.5c13.3,1.6,26.6,2.1,39.8,1.3l0.7,0c63.8-3.5,111.4-30.8,138.7-16.5
		c198.4,49.7,69,219.7-26.3,324.9c-4.8,5.3-9.7,10.5-14.7,15.5c-2.2,2.2-4.5,4.5-6.8,6.6c-6,5.7-12.1,11.1-18.3,16.3
		c-2.4,2-4.8,3.9-7.2,5.9c-2.6,2.1-5.2,4.1-7.8,6c-19.3,14.5-39.4,26.4-59.7,35c-39,16.6-81.6,24.5-125.1,23.4
		c-36.9-1-65.2-31.3-65.2-31.3l-0.4,0c-30.9,1.8-61.3-15.2-77.1-43.3c-2-3.6-3.8-6-5.2-6.7c-24.6-12.8-37.5,1.6-64.5-3.6
		c-47.3-9.3-117.6-125.2-94.9-173.6c18.4-39.2-14.8-101-10.3-140.7c0.7-6.2,1.5-12.4,2.4-18.6c0.4-2.9,0.8-5.8,1.3-8.6
		c4.6-29.5,11.2-58.5,20-86.7c5.7-18.5,12.6-36.5,20.6-53.9C109.8,24.6,170,41.4,192.1,113.8c4.9,7.2,9.8,14.1,14.6,20.8
		c7,9.7,13.9,18.8,20.8,27.4c9.3,11.6,18.4,22.4,27.4,32.2c3,3.3,6,6.5,9,9.7"/>
	<path class="st0" d="M471.9,316"/>
	<path class="st0" d="M476,315"/>
	<path class="st0" d="M474.8,308.7"/>
	<path class="st0" d="M349.7,344.2"/>
	<path class="st0" d="M347.8,358.7"/>
	<path class="st0" d="M277,556.8"/>
	<path class="st0" d="M252.8,557.3"/>
	<path class="st0" d="M270.7,572.5"/>
	<path class="st2" d="M468.3,543.9c4,0.7,2.4,7.1-1.6,6.2C462.7,549.4,464.3,543.1,468.3,543.9z"/>
	<path class="st2" d="M167.8,353c4,0.7,2.4,7.1-1.6,6.2C162.2,358.5,163.8,352.2,167.8,353z"/>
	<path class="st2" d="M379.1,476.7c4,0.7,2.4,7.1-1.6,6.2C373.6,482.2,375.2,475.9,379.1,476.7z"/>
	<path class="st2" d="M612.7,401.9c4,0.7,2.4,7.1-1.6,6.2C607.1,407.4,608.7,401,612.7,401.9z"/>
	<path class="st2" d="M167.6,601.3c4,0.7,2.4,7.1-1.6,6.2C162.1,606.8,163.7,600.4,167.6,601.3z"/>
	<path class="st2" d="M359.3,642.6c4,0.7,2.4,7.1-1.6,6.2C353.8,648.1,355.4,641.8,359.3,642.6z"/>
	<polygon class="st2" points="172,496.2 173.1,498.1 171.2,499.3 172,500.5 173.9,499.3 175,501.2 176.3,500.3 175.2,498.5 
		177.1,497.2 176.3,496 174.4,497.2 173.3,495.4 	"/>
	<polygon class="st2" points="547.3,611.2 548.4,613.1 546.5,614.3 547.2,615.6 549.2,614.3 550.3,616.2 551.6,615.4 550.4,613.5 
		552.4,612.3 551.6,611 549.7,612.3 548.5,610.4 	"/>
	<path class="st0" d="M324.8,202.9"/>
	<path class="st0" d="M448.5,313.9"/>
	<path class="st0" d="M462.5,318.8"/>
	<path class="st0" d="M466.4,289.1"/>
	<path class="st0" d="M412.2,370.6"/>
	<path class="st0" d="M421.1,358.5"/>
	
		<linearGradient id="SVGID_2_" gradientUnits="userSpaceOnUse" x1="360.8786" y1="704.9069" x2="543.8702" y2="704.9069" gradientTransform="matrix(1.0811 -0.4434 0.475 1.0682 -393.2336 150.7056)">
		<stop  offset="0" style="stop-color:#2D2377"/>
		<stop  offset="9.124938e-02" style="stop-color:#2F277A"/>
		<stop  offset="0.1869" style="stop-color:#343483"/>
		<stop  offset="0.2845" style="stop-color:#3D4992"/>
		<stop  offset="0.3836" style="stop-color:#4966A7"/>
		<stop  offset="0.4828" style="stop-color:#588BC1"/>
		<stop  offset="0.4888" style="stop-color:#598EC3"/>
		<stop  offset="0.5871" style="stop-color:#486AA0"/>
		<stop  offset="0.7123" style="stop-color:#354279"/>
		<stop  offset="0.8272" style="stop-color:#28265D"/>
		<stop  offset="0.9268" style="stop-color:#20144C"/>
		<stop  offset="1" style="stop-color:#1D0E46"/>
	</linearGradient>
	<path class="st3" d="M389.5,803.2c-53.8-22.1-79.1-84.9-56.3-140.1s84.8-82.2,138.6-60.1c53.8,22.1,79.1,84.9,56.3,140.1
		C505.4,798.5,443.4,825.3,389.5,803.2z"/>
	<path class="st4" d="M266.6,376.5L109.8,455l159.1-73.3c1.7-0.2,2.9-1.8,2.8-3.4c-0.1-1.7-1.6-2.8-3.3-2.6
		C267.7,375.7,267.1,376.1,266.6,376.5L266.6,376.5z"/>
	<path class="st0" d="M99.2,348.1c10.1,4.9,20.9,10.7,32.5,17.4C191.6,400,264.4,453.4,336.9,516c72.4,62.6,135.8,126.9,178.3,181
		c20.7,26.4,35.4,48.9,43.7,67c8.7,19.1,9.8,32.6,3.2,40.1c-12.8,14.6-50.3,0.8-79.4-13.4l1.3-2.4c40,19.4,67.1,24.4,76.2,14.1
		c11.6-13.2-5.6-51-47.1-103.7c-42.5-54-105.7-118.2-178-180.7C262.7,455.6,190,402.2,130.2,367.8c-58.4-33.6-98.5-45.3-110-32.1
		c-9.6,10.9,0.5,38.9,28.5,78.8l-2.2,1.6c-20.3-29-41.7-66.8-28.2-82.1c6.6-7.5,20.2-8.2,40.5-2.3C70.4,335.1,83.9,340.6,99.2,348.1
		z"/>
	
		<linearGradient id="SVGID_3_" gradientUnits="userSpaceOnUse" x1="183.2281" y1="219.4775" x2="202.242" y2="219.4775" gradientTransform="matrix(1.7803 -1.041551e-02 -1.041551e-02 1.7799 -158.5824 -168.8186)">
		<stop  offset="0" style="stop-color:#C3B3D8"/>
		<stop  offset="0.1664" style="stop-color:#CDBFDF"/>
		<stop  offset="0.4698" style="stop-color:#E7E0F1"/>
		<stop  offset="0.5" style="stop-color:#EAE4F3"/>
		<stop  offset="0.5347" style="stop-color:#D8D3EA"/>
		<stop  offset="0.5948" style="stop-color:#BEBBDD"/>
		<stop  offset="0.6618" style="stop-color:#ABA8D3"/>
		<stop  offset="0.7385" style="stop-color:#9D9BCC"/>
		<stop  offset="0.8332" style="stop-color:#9493C8"/>
		<stop  offset="1" style="stop-color:#9291C7"/>
	</linearGradient>
	<path class="st5" d="M169.8,232.1c-6.3-6.4-5.9-17.1,1-23.9c6.9-6.8,17.6-7,23.9-0.6s5.9,17.1-1,23.9
		C186.8,238.2,176.1,238.5,169.8,232.1z"/>
	
		<linearGradient id="SVGID_4_" gradientUnits="userSpaceOnUse" x1="419.2271" y1="301.4277" x2="443.9644" y2="301.4277" gradientTransform="matrix(-1.1446 -1.7189 1.6647 -1.2247 282.3726 1412.0565)">
		<stop  offset="0" style="stop-color:#00B0B2"/>
		<stop  offset="0.5" style="stop-color:#C6E5E5"/>
		<stop  offset="1" style="stop-color:#00A0A1"/>
	</linearGradient>
	<path class="st6" d="M311.8,285.8c15.2,30.9-20.5,56.2-43.2,30.5C253.4,285.4,289.1,260.1,311.8,285.8z"/>
	
		<linearGradient id="SVGID_5_" gradientUnits="userSpaceOnUse" x1="288.5221" y1="415.3223" x2="313.2594" y2="415.3223" gradientTransform="matrix(0.4205 -1.4887 1.4683 0.4836 -426.5369 665.9465)">
		<stop  offset="0" style="stop-color:#E9A700"/>
		<stop  offset="8.406175e-02" style="stop-color:#E9A804"/>
		<stop  offset="0.1633" style="stop-color:#EAAD0F"/>
		<stop  offset="0.2407" style="stop-color:#ECB422"/>
		<stop  offset="0.3169" style="stop-color:#EFBE3D"/>
		<stop  offset="0.3923" style="stop-color:#F2CB60"/>
		<stop  offset="0.4661" style="stop-color:#F6DB89"/>
		<stop  offset="0.5" style="stop-color:#F8E39F"/>
		<stop  offset="0.5564" style="stop-color:#F0D794"/>
		<stop  offset="0.6596" style="stop-color:#D9B579"/>
		<stop  offset="0.7981" style="stop-color:#B5804B"/>
		<stop  offset="0.9649" style="stop-color:#84360E"/>
		<stop  offset="1" style="stop-color:#792600"/>
	</linearGradient>
	<path class="st7" d="M328.5,425.4c-10.1,23.4-41,12.6-37.4-13.1C301.2,388.9,332.1,399.7,328.5,425.4z"/>
	
		<linearGradient id="SVGID_6_" gradientUnits="userSpaceOnUse" x1="45.1743" y1="425.8215" x2="69.9116" y2="425.8215" gradientTransform="matrix(0.7071 -0.7071 0.7071 0.7071 -130.378 263.4552)">
		<stop  offset="0" style="stop-color:#885591"/>
		<stop  offset="0.1978" style="stop-color:#8A5893"/>
		<stop  offset="0.327" style="stop-color:#8F6099"/>
		<stop  offset="0.4362" style="stop-color:#996FA3"/>
		<stop  offset="0.5" style="stop-color:#A17CAC"/>
		<stop  offset="0.5348" style="stop-color:#926B9E"/>
		<stop  offset="0.6056" style="stop-color:#784F87"/>
		<stop  offset="0.682" style="stop-color:#643975"/>
		<stop  offset="0.7656" style="stop-color:#562A69"/>
		<stop  offset="0.8619" style="stop-color:#4E2161"/>
		<stop  offset="1" style="stop-color:#4B1E5F"/>
	</linearGradient>
	<path class="st8" d="M220.3,533.1c-13.2,10.1-27.9-5.2-17.8-18.5C215.7,504.6,230.4,519.8,220.3,533.1z"/>
	
		<ellipse transform="matrix(0.7128 -0.7013 0.7013 0.7128 -165.8248 493.7549)" class="st0" cx="520" cy="449.4" rx="9.8" ry="9.2"/>
	<path class="st9" d="M331.8,297.3"/>
	<path class="st9" d="M330.7,329.2"/>
	<g>
		<g>
			<path d="M277.7,681.1v-7c16.2-2,18.2-4.5,14.8-14c-3.2-9.8-8.2-22.2-13.5-38h-54c-4,11.2-7.8,21-11.2,31.2
				c-5.5,16.2-2,18.2,18.5,20.8v7h-57.8v-7c15.8-2,19.8-3.8,28.5-26.2l51.8-131.2l8-1.5c15.8,42.8,33,90,48.8,133.2
				c8,21.8,10.2,23.8,28,25.8v7H277.7z M252.7,547.8c-8,21.5-16.5,44.2-24,64h46.8L252.7,547.8z"/>
		</g>
	</g>
	<g>
		<g>
			<path d="M65,669.3l7.7-18.1c5.1-9.5,14.8-18.3,27.9-21.5c22.1-5.4,40.1,4.8,44.6,23.3c1.8,7.3,0.1,13.9-3.1,19.8
				c-2.9,5.1-8.1,11-14,17.3c23.8-0.7,40.8,10.8,45.1,28.6c9.7,39.6-32.8,67.8-50,72c-11.4,2.8-23,0.5-27.3-2.3
				c-3.7-2.4-5-4.4-5.6-7.1c-0.7-3.9,1.6-8.4,3.3-10.6c1.6-1.9,3.7-2.7,6.4-1.3c8,4.2,19.4,8.9,33.3,5.5c17.5-4.3,26.6-20.4,20.9-44
				c-5.7-22.3-24.1-27-39.7-23.2c-5.6,1.4-12,4.5-15.6,6.7l-3.5-6.9c19.9-12.3,35-26.3,30.6-44.3c-3.5-14.3-14.8-20.3-28.8-16.9
				c-13.6,3.3-21.6,15.9-25.6,26.6L65,669.3z"/>
		</g>
	</g>
</g>
<g id="Capa_2">
	
		<radialGradient id="SVGID_7_" cx="373.4606" cy="-87.3431" r="72.799" gradientTransform="matrix(0.7114 0.6445 -0.6428 0.7134 416.7949 -89.5947)" gradientUnits="userSpaceOnUse">
		<stop  offset="5.618000e-03" style="stop-color:#FBEAF4"/>
		<stop  offset="0.4494" style="stop-color:#F8D0E3"/>
		<stop  offset="1" style="stop-color:#F5B9D5"/>
	</radialGradient>
	<path class="st10" d="M676.4,157.9L676.4,157.9c-13.7-12.4-14.7-33.5-2.4-47.3l79.8-88.6c12.4-13.7,33.5-14.8,47.1-2.4v0
		c13.7,12.4,14.7,33.5,2.4,47.3l-79.8,88.6C711.1,169.2,690,170.3,676.4,157.9z"/>
	
		<linearGradient id="SVGID_8_" gradientUnits="userSpaceOnUse" x1="375.6334" y1="187.9596" x2="443.2222" y2="187.9596" gradientTransform="matrix(0.742 0.6704 -0.6704 0.742 369.6097 -112.9099)">
		<stop  offset="5.618000e-03" style="stop-color:#FBCA00"/>
		<stop  offset="0.2528" style="stop-color:#FFF9D1"/>
		<stop  offset="0.2984" style="stop-color:#FAF0C0"/>
		<stop  offset="0.3891" style="stop-color:#ECD793"/>
		<stop  offset="0.515" style="stop-color:#D7B04B"/>
		<stop  offset="0.5955" style="stop-color:#C8951A"/>
		<stop  offset="0.816" style="stop-color:#E9CD76"/>
		<stop  offset="0.8708" style="stop-color:#F1DC8D"/>
		<stop  offset="1" style="stop-color:#FFF9D1"/>
	</linearGradient>
	<polygon class="st11" points="380.9,535.7 331.4,490.8 713.9,66.4 763.4,111.2 	"/>
	
		<linearGradient id="SVGID_9_" gradientUnits="userSpaceOnUse" x1="376.4085" y1="520.2488" x2="443.2222" y2="520.2488" gradientTransform="matrix(0.742 0.6704 -0.6704 0.742 369.6097 -112.9099)">
		<stop  offset="1.123600e-02" style="stop-color:#F3A561"/>
		<stop  offset="0.1742" style="stop-color:#F6C481"/>
		<stop  offset="0.3427" style="stop-color:#F3A561"/>
		<stop  offset="0.5393" style="stop-color:#F8D7AC"/>
		<stop  offset="0.6798" style="stop-color:#F3A561"/>
		<stop  offset="0.7809" style="stop-color:#EFD2A2"/>
		<stop  offset="0.9775" style="stop-color:#F3A561"/>
	</linearGradient>
	<polygon class="st12" points="293.8,582.6 380.9,535.7 331.4,490.8 	"/>
	
		<linearGradient id="SVGID_10_" gradientUnits="userSpaceOnUse" x1="375.6147" y1="-58.0743" x2="442.5732" y2="-58.0743" gradientTransform="matrix(0.742 0.6704 -0.6704 0.742 369.6097 -112.9099)">
		<stop  offset="0" style="stop-color:#EDEBE9"/>
		<stop  offset="0" style="stop-color:#DEDEDD"/>
		<stop  offset="0" style="stop-color:#D9D9D9"/>
		<stop  offset="8.035887e-02" style="stop-color:#F5F5F5"/>
		<stop  offset="0.1067" style="stop-color:#FFFFFF"/>
		<stop  offset="0.1319" style="stop-color:#F5F5F5"/>
		<stop  offset="0.1742" style="stop-color:#DBDBDB"/>
		<stop  offset="0.2281" style="stop-color:#B2B2B1"/>
		<stop  offset="0.2472" style="stop-color:#A1A1A0"/>
		<stop  offset="0.2719" style="stop-color:#A3A3A3"/>
		<stop  offset="0.2868" style="stop-color:#ACACAB"/>
		<stop  offset="0.299" style="stop-color:#BABAB9"/>
		<stop  offset="0.3098" style="stop-color:#CECECD"/>
		<stop  offset="0.3146" style="stop-color:#D9D9D9"/>
		<stop  offset="0.3611" style="stop-color:#CFCFCF"/>
		<stop  offset="0.4395" style="stop-color:#B5B5B5"/>
		<stop  offset="0.5401" style="stop-color:#8B8B8A"/>
		<stop  offset="0.6461" style="stop-color:#575756"/>
		<stop  offset="0.6747" style="stop-color:#616160"/>
		<stop  offset="0.7226" style="stop-color:#7A7A7A"/>
		<stop  offset="0.7416" style="stop-color:#868686"/>
		<stop  offset="0.744" style="stop-color:#787878"/>
		<stop  offset="0.7509" style="stop-color:#585857"/>
		<stop  offset="0.758" style="stop-color:#3E3E3C"/>
		<stop  offset="0.7653" style="stop-color:#2C2C2A"/>
		<stop  offset="0.7727" style="stop-color:#21211F"/>
		<stop  offset="0.7809" style="stop-color:#1D1D1B"/>
		<stop  offset="0.7906" style="stop-color:#494948"/>
		<stop  offset="0.8027" style="stop-color:#797978"/>
		<stop  offset="0.8152" style="stop-color:#A2A2A1"/>
		<stop  offset="0.8278" style="stop-color:#C4C4C3"/>
		<stop  offset="0.8406" style="stop-color:#DEDEDE"/>
		<stop  offset="0.8537" style="stop-color:#F0F0F0"/>
		<stop  offset="0.8673" style="stop-color:#FBFBFB"/>
		<stop  offset="0.882" style="stop-color:#FFFFFF"/>
		<stop  offset="0.8907" style="stop-color:#F4F4F4"/>
		<stop  offset="0.9164" style="stop-color:#DADADA"/>
		<stop  offset="0.9428" style="stop-color:#C8C8C8"/>
		<stop  offset="0.9702" style="stop-color:#BDBDBD"/>
		<stop  offset="1" style="stop-color:#B9B9B9"/>
	</linearGradient>
	<polygon class="st13" points="701.1,180.3 651.6,135.5 723.1,56.1 772.6,101 	"/>
	
		<linearGradient id="SVGID_11_" gradientUnits="userSpaceOnUse" x1="220.5598" y1="820.9064" x2="287.3886" y2="820.9064" gradientTransform="matrix(-0.742 -0.6704 0.6704 -0.742 376.7705 868.1827)">
		<stop  offset="0" style="stop-color:#EDEBE9"/>
		<stop  offset="0" style="stop-color:#DEDEDD"/>
		<stop  offset="0" style="stop-color:#D9D9D9"/>
		<stop  offset="8.035887e-02" style="stop-color:#F5F5F5"/>
		<stop  offset="0.1067" style="stop-color:#FFFFFF"/>
		<stop  offset="0.1319" style="stop-color:#F5F5F5"/>
		<stop  offset="0.1742" style="stop-color:#DBDBDB"/>
		<stop  offset="0.2281" style="stop-color:#B2B2B1"/>
		<stop  offset="0.2472" style="stop-color:#A1A1A0"/>
		<stop  offset="0.2719" style="stop-color:#A3A3A3"/>
		<stop  offset="0.2868" style="stop-color:#ACACAB"/>
		<stop  offset="0.299" style="stop-color:#BABAB9"/>
		<stop  offset="0.3098" style="stop-color:#CECECD"/>
		<stop  offset="0.3146" style="stop-color:#D9D9D9"/>
		<stop  offset="0.3611" style="stop-color:#CFCFCF"/>
		<stop  offset="0.4395" style="stop-color:#B5B5B5"/>
		<stop  offset="0.5401" style="stop-color:#8B8B8A"/>
		<stop  offset="0.6461" style="stop-color:#575756"/>
		<stop  offset="0.6747" style="stop-color:#616160"/>
		<stop  offset="0.7226" style="stop-color:#7A7A7A"/>
		<stop  offset="0.7416" style="stop-color:#868686"/>
		<stop  offset="0.744" style="stop-color:#787878"/>
		<stop  offset="0.7509" style="stop-color:#585857"/>
		<stop  offset="0.758" style="stop-color:#3E3E3C"/>
		<stop  offset="0.7653" style="stop-color:#2C2C2A"/>
		<stop  offset="0.7727" style="stop-color:#21211F"/>
		<stop  offset="0.7809" style="stop-color:#1D1D1B"/>
		<stop  offset="0.7906" style="stop-color:#494948"/>
		<stop  offset="0.8027" style="stop-color:#797978"/>
		<stop  offset="0.8152" style="stop-color:#A2A2A1"/>
		<stop  offset="0.8278" style="stop-color:#C4C4C3"/>
		<stop  offset="0.8406" style="stop-color:#DEDEDE"/>
		<stop  offset="0.8537" style="stop-color:#F0F0F0"/>
		<stop  offset="0.8673" style="stop-color:#FBFBFB"/>
		<stop  offset="0.882" style="stop-color:#FFFFFF"/>
		<stop  offset="0.8907" style="stop-color:#F4F4F4"/>
		<stop  offset="0.9164" style="stop-color:#DADADA"/>
		<stop  offset="0.9428" style="stop-color:#C8C8C8"/>
		<stop  offset="0.9702" style="stop-color:#BDBDBD"/>
		<stop  offset="1" style="stop-color:#B9B9B9"/>
	</linearGradient>
	<polygon class="st14" points="717.6,62.2 767.1,107.1 759.6,115.4 710.1,70.5 	"/>
	
		<linearGradient id="SVGID_12_" gradientUnits="userSpaceOnUse" x1="220.5348" y1="802.4695" x2="287.3636" y2="802.4695" gradientTransform="matrix(-0.742 -0.6704 0.6704 -0.742 376.7705 868.1827)">
		<stop  offset="0" style="stop-color:#EDEBE9"/>
		<stop  offset="0" style="stop-color:#DEDEDD"/>
		<stop  offset="0" style="stop-color:#D9D9D9"/>
		<stop  offset="8.035887e-02" style="stop-color:#F5F5F5"/>
		<stop  offset="0.1067" style="stop-color:#FFFFFF"/>
		<stop  offset="0.1319" style="stop-color:#F5F5F5"/>
		<stop  offset="0.1742" style="stop-color:#DBDBDB"/>
		<stop  offset="0.2281" style="stop-color:#B2B2B1"/>
		<stop  offset="0.2472" style="stop-color:#A1A1A0"/>
		<stop  offset="0.2719" style="stop-color:#A3A3A3"/>
		<stop  offset="0.2868" style="stop-color:#ACACAB"/>
		<stop  offset="0.299" style="stop-color:#BABAB9"/>
		<stop  offset="0.3098" style="stop-color:#CECECD"/>
		<stop  offset="0.3146" style="stop-color:#D9D9D9"/>
		<stop  offset="0.3611" style="stop-color:#CFCFCF"/>
		<stop  offset="0.4395" style="stop-color:#B5B5B5"/>
		<stop  offset="0.5401" style="stop-color:#8B8B8A"/>
		<stop  offset="0.6461" style="stop-color:#575756"/>
		<stop  offset="0.6747" style="stop-color:#616160"/>
		<stop  offset="0.7226" style="stop-color:#7A7A7A"/>
		<stop  offset="0.7416" style="stop-color:#868686"/>
		<stop  offset="0.744" style="stop-color:#787878"/>
		<stop  offset="0.7509" style="stop-color:#585857"/>
		<stop  offset="0.758" style="stop-color:#3E3E3C"/>
		<stop  offset="0.7653" style="stop-color:#2C2C2A"/>
		<stop  offset="0.7727" style="stop-color:#21211F"/>
		<stop  offset="0.7809" style="stop-color:#1D1D1B"/>
		<stop  offset="0.7906" style="stop-color:#494948"/>
		<stop  offset="0.8027" style="stop-color:#797978"/>
		<stop  offset="0.8152" style="stop-color:#A2A2A1"/>
		<stop  offset="0.8278" style="stop-color:#C4C4C3"/>
		<stop  offset="0.8406" style="stop-color:#DEDEDE"/>
		<stop  offset="0.8537" style="stop-color:#F0F0F0"/>
		<stop  offset="0.8673" style="stop-color:#FBFBFB"/>
		<stop  offset="0.882" style="stop-color:#FFFFFF"/>
		<stop  offset="0.8907" style="stop-color:#F4F4F4"/>
		<stop  offset="0.9164" style="stop-color:#DADADA"/>
		<stop  offset="0.9428" style="stop-color:#C8C8C8"/>
		<stop  offset="0.9702" style="stop-color:#BDBDBD"/>
		<stop  offset="1" style="stop-color:#B9B9B9"/>
	</linearGradient>
	<polygon class="st15" points="705.3,75.9 754.8,120.8 747.3,129.1 697.8,84.2 	"/>
	
		<linearGradient id="SVGID_13_" gradientUnits="userSpaceOnUse" x1="403.9247" y1="559.2136" x2="415.8349" y2="559.2136" gradientTransform="matrix(0.742 0.6704 -0.6704 0.742 369.6097 -112.9099)">
		<stop  offset="0" style="stop-color:#979797"/>
		<stop  offset="3.581571e-02" style="stop-color:#8C8C8C"/>
		<stop  offset="0.1294" style="stop-color:#767675"/>
		<stop  offset="0.2302" style="stop-color:#666665"/>
		<stop  offset="0.3424" style="stop-color:#5C5C5B"/>
		<stop  offset="0.4888" style="stop-color:#595958"/>
		<stop  offset="0.7065" style="stop-color:#565655"/>
		<stop  offset="0.8734" style="stop-color:#4C4C4B"/>
		<stop  offset="1" style="stop-color:#3F3F3E"/>
	</linearGradient>
	<polygon class="st16" points="292.8,583.5 309.3,574.1 300.5,566.1 	"/>
</g>
<g id="Capa_3">
	<path class="st0" d="M371.4,184.5c-38.7-53.4-68.2-81-81.1-75.7c-10.7,4.4-9.8,31.5,2.4,76.3l-2.2,0.3
		c-8.9-32.5-16.4-72.6-1.4-78.8c7.3-3,18.6,2.5,33.6,16.5c8.5,8,18.1,18.5,28.6,31.5c6.9,8.5,14.2,18.1,21.8,28.7
		c39.7,54.8,84.9,130.9,127.3,214c42.5,83.2,77.1,163.6,97.5,226.4c9.9,30.6,16,55.4,17.9,73.7c2.1,19.4-0.6,30.7-7.9,33.7
		c-14.3,5.9-41.1-22.2-61.1-46.7l1.7-1.4c27.5,33.8,48.2,50,58.3,45.8c12.9-5.3,8.9-43.5-11-104.7c-20.3-62.7-54.9-143-97.3-226"/>
	<path class="st0" d="M99.2,348.1c10.1,4.9,20.9,10.7,32.5,17.4C191.6,400,264.4,453.4,336.9,516c72.4,62.6,135.8,126.9,178.3,181
		c20.7,26.4,35.4,48.9,43.7,67c8.7,19.1,9.8,32.6,3.2,40.1c-12.8,14.6-50.3,0.8-79.4-13.4l1.3-2.4c40,19.4,67.1,24.4,76.2,14.1
		c11.6-13.2-5.6-51-47.1-103.7c-42.5-54-105.7-118.2-178-180.7C262.7,455.6,190,402.2,130.2,367.8c-58.4-33.6-98.5-45.3-110-32.1
		c-9.6,10.9,0.5,38.9,28.5,78.8l-2.2,1.6c-20.3-29-41.7-66.8-28.2-82.1c6.6-7.5,20.2-8.2,40.5-2.3C70.4,335.1,83.9,340.6,99.2,348.1
		z"/>
	<path class="st0" d="M563.5,147.1c-19.2-55.3-34.9-87.3-43.3-87.9c-6.9-0.5-8.7,20.8-4.9,59.8l-1.4-0.6c-2.7-28.4-3.9-62,5.8-61.4
		c4.7,0.3,11.2,8.7,19.2,24.9c4.6,9.3,9.5,20.9,14.8,34.7c3.5,9.1,7.2,19.1,11,30.1c19.7,56.7,41,131.8,60,211.5
		c19,79.6,33.4,154.3,40.6,210.2c3.5,27.2,5.1,48.6,4.8,63.4c-0.4,15.7-3,23.5-7.7,23.2c-9.2-0.6-23.3-32-33.5-58.2l1.1-0.4
		c14,36,25.3,56.1,31.8,56.5c8.3,0.5,9.1-30.4,2.1-84.9c-7.2-55.8-21.6-130.3-40.6-209.8"/>
</g>
</svg>
